<svg xmlns="http://www.w3.org/2000/svg" width="720" height="430" viewBox="0 0 720 430">
<rect width="720" height="430" fill="white"/>
<text x="360.0" y="28.0" text-anchor="middle" font-family="Arial, sans-serif" font-size="18">Behavioral authorization effect</text>
<line x1="90" y1="229.1" x2="680" y2="229.1" stroke="#555" stroke-dasharray="5 4"/>
<line x1="90" y1="65" x2="90" y2="350" stroke="black"/>
<line x1="90" y1="350" x2="680" y2="350" stroke="black"/>
<line x1="85" y1="350.0" x2="90" y2="350.0" stroke="black"/>
<text x="80.0" y="354.0" text-anchor="end" font-family="Arial, sans-serif" font-size="11">-5.9</text>
<line x1="85" y1="296.0" x2="90" y2="296.0" stroke="black"/>
<text x="80.0" y="300.0" text-anchor="end" font-family="Arial, sans-serif" font-size="11">-3.2</text>
<line x1="85" y1="242.0" x2="90" y2="242.0" stroke="black"/>
<text x="80.0" y="246.0" text-anchor="end" font-family="Arial, sans-serif" font-size="11">-0.6</text>
<line x1="85" y1="188.0" x2="90" y2="188.0" stroke="black"/>
<text x="80.0" y="192.0" text-anchor="end" font-family="Arial, sans-serif" font-size="11">2.0</text>
<line x1="85" y1="134.0" x2="90" y2="134.0" stroke="black"/>
<text x="80.0" y="138.0" text-anchor="end" font-family="Arial, sans-serif" font-size="11">4.6</text>
<line x1="85" y1="80.0" x2="90" y2="80.0" stroke="black"/>
<text x="80.0" y="84.0" text-anchor="end" font-family="Arial, sans-serif" font-size="11">7.3</text>
<line x1="190" y1="320.7" x2="330" y2="320.7" stroke="#4c78a8" stroke-width="5"/>
<circle cx="230.0" cy="334.6" r="3" fill="#4c78a8" fill-opacity="0.45"/>
<circle cx="235.0" cy="334.6" r="3" fill="#4c78a8" fill-opacity="0.45"/>
<circle cx="240.0" cy="342.3" r="3" fill="#4c78a8" fill-opacity="0.45"/>
<circle cx="245.0" cy="342.3" r="3" fill="#4c78a8" fill-opacity="0.45"/>
<circle cx="250.0" cy="344.9" r="3" fill="#4c78a8" fill-opacity="0.45"/>
<circle cx="255.0" cy="332.0" r="3" fill="#4c78a8" fill-opacity="0.45"/>
<circle cx="260.0" cy="337.1" r="3" fill="#4c78a8" fill-opacity="0.45"/>
<circle cx="265.0" cy="329.4" r="3" fill="#4c78a8" fill-opacity="0.45"/>
<circle cx="270.0" cy="329.4" r="3" fill="#4c78a8" fill-opacity="0.45"/>
<circle cx="275.0" cy="298.6" r="3" fill="#4c78a8" fill-opacity="0.45"/>
<circle cx="280.0" cy="324.3" r="3" fill="#4c78a8" fill-opacity="0.45"/>
<circle cx="285.0" cy="311.4" r="3" fill="#4c78a8" fill-opacity="0.45"/>
<circle cx="290.0" cy="321.7" r="3" fill="#4c78a8" fill-opacity="0.45"/>
<circle cx="230.0" cy="311.4" r="3" fill="#4c78a8" fill-opacity="0.45"/>
<circle cx="235.0" cy="321.7" r="3" fill="#4c78a8" fill-opacity="0.45"/>
<circle cx="240.0" cy="303.7" r="3" fill="#4c78a8" fill-opacity="0.45"/>
<circle cx="245.0" cy="334.6" r="3" fill="#4c78a8" fill-opacity="0.45"/>
<circle cx="250.0" cy="319.1" r="3" fill="#4c78a8" fill-opacity="0.45"/>
<circle cx="255.0" cy="326.9" r="3" fill="#4c78a8" fill-opacity="0.45"/>
<circle cx="260.0" cy="321.7" r="3" fill="#4c78a8" fill-opacity="0.45"/>
<circle cx="265.0" cy="326.9" r="3" fill="#4c78a8" fill-opacity="0.45"/>
<circle cx="270.0" cy="314.0" r="3" fill="#4c78a8" fill-opacity="0.45"/>
<circle cx="275.0" cy="321.7" r="3" fill="#4c78a8" fill-opacity="0.45"/>
<circle cx="280.0" cy="321.7" r="3" fill="#4c78a8" fill-opacity="0.45"/>
<circle cx="285.0" cy="342.3" r="3" fill="#4c78a8" fill-opacity="0.45"/>
<circle cx="290.0" cy="329.4" r="3" fill="#4c78a8" fill-opacity="0.45"/>
<circle cx="230.0" cy="329.4" r="3" fill="#4c78a8" fill-opacity="0.45"/>
<circle cx="235.0" cy="329.4" r="3" fill="#4c78a8" fill-opacity="0.45"/>
<circle cx="240.0" cy="344.9" r="3" fill="#4c78a8" fill-opacity="0.45"/>
<circle cx="245.0" cy="329.4" r="3" fill="#4c78a8" fill-opacity="0.45"/>
<circle cx="250.0" cy="350.0" r="3" fill="#4c78a8" fill-opacity="0.45"/>
<circle cx="255.0" cy="337.1" r="3" fill="#4c78a8" fill-opacity="0.45"/>
<circle cx="260.0" cy="326.9" r="3" fill="#4c78a8" fill-opacity="0.45"/>
<circle cx="265.0" cy="311.4" r="3" fill="#4c78a8" fill-opacity="0.45"/>
<circle cx="270.0" cy="329.4" r="3" fill="#4c78a8" fill-opacity="0.45"/>
<circle cx="275.0" cy="311.4" r="3" fill="#4c78a8" fill-opacity="0.45"/>
<circle cx="280.0" cy="319.1" r="3" fill="#4c78a8" fill-opacity="0.45"/>
<circle cx="285.0" cy="301.1" r="3" fill="#4c78a8" fill-opacity="0.45"/>
<circle cx="290.0" cy="314.0" r="3" fill="#4c78a8" fill-opacity="0.45"/>
<circle cx="230.0" cy="306.3" r="3" fill="#4c78a8" fill-opacity="0.45"/>
<circle cx="235.0" cy="324.3" r="3" fill="#4c78a8" fill-opacity="0.45"/>
<circle cx="240.0" cy="326.9" r="3" fill="#4c78a8" fill-opacity="0.45"/>
<circle cx="245.0" cy="321.7" r="3" fill="#4c78a8" fill-opacity="0.45"/>
<circle cx="250.0" cy="314.0" r="3" fill="#4c78a8" fill-opacity="0.45"/>
<circle cx="255.0" cy="324.3" r="3" fill="#4c78a8" fill-opacity="0.45"/>
<circle cx="260.0" cy="296.0" r="3" fill="#4c78a8" fill-opacity="0.45"/>
<circle cx="265.0" cy="306.3" r="3" fill="#4c78a8" fill-opacity="0.45"/>
<circle cx="270.0" cy="290.9" r="3" fill="#4c78a8" fill-opacity="0.45"/>
<circle cx="275.0" cy="311.4" r="3" fill="#4c78a8" fill-opacity="0.45"/>
<circle cx="280.0" cy="293.4" r="3" fill="#4c78a8" fill-opacity="0.45"/>
<circle cx="285.0" cy="306.3" r="3" fill="#4c78a8" fill-opacity="0.45"/>
<circle cx="290.0" cy="298.6" r="3" fill="#4c78a8" fill-opacity="0.45"/>
<circle cx="230.0" cy="306.3" r="3" fill="#4c78a8" fill-opacity="0.45"/>
<circle cx="235.0" cy="298.6" r="3" fill="#4c78a8" fill-opacity="0.45"/>
<circle cx="240.0" cy="308.9" r="3" fill="#4c78a8" fill-opacity="0.45"/>
<circle cx="245.0" cy="306.3" r="3" fill="#4c78a8" fill-opacity="0.45"/>
<circle cx="250.0" cy="337.1" r="3" fill="#4c78a8" fill-opacity="0.45"/>
<circle cx="255.0" cy="321.7" r="3" fill="#4c78a8" fill-opacity="0.45"/>
<circle cx="260.0" cy="329.4" r="3" fill="#4c78a8" fill-opacity="0.45"/>
<circle cx="265.0" cy="324.3" r="3" fill="#4c78a8" fill-opacity="0.45"/>
<circle cx="270.0" cy="311.4" r="3" fill="#4c78a8" fill-opacity="0.45"/>
<circle cx="275.0" cy="308.9" r="3" fill="#4c78a8" fill-opacity="0.45"/>
<circle cx="280.0" cy="321.7" r="3" fill="#4c78a8" fill-opacity="0.45"/>
<circle cx="285.0" cy="311.4" r="3" fill="#4c78a8" fill-opacity="0.45"/>
<circle cx="290.0" cy="326.9" r="3" fill="#4c78a8" fill-opacity="0.45"/>
<circle cx="230.0" cy="316.6" r="3" fill="#4c78a8" fill-opacity="0.45"/>
<circle cx="235.0" cy="314.0" r="3" fill="#4c78a8" fill-opacity="0.45"/>
<circle cx="240.0" cy="311.4" r="3" fill="#4c78a8" fill-opacity="0.45"/>
<circle cx="245.0" cy="319.1" r="3" fill="#4c78a8" fill-opacity="0.45"/>
<circle cx="250.0" cy="272.9" r="3" fill="#4c78a8" fill-opacity="0.45"/>
<circle cx="255.0" cy="321.7" r="3" fill="#4c78a8" fill-opacity="0.45"/>
<circle cx="260.0" cy="308.9" r="3" fill="#4c78a8" fill-opacity="0.45"/>
<circle cx="265.0" cy="337.1" r="3" fill="#4c78a8" fill-opacity="0.45"/>
<circle cx="270.0" cy="308.9" r="3" fill="#4c78a8" fill-opacity="0.45"/>
<circle cx="275.0" cy="332.0" r="3" fill="#4c78a8" fill-opacity="0.45"/>
<circle cx="280.0" cy="316.6" r="3" fill="#4c78a8" fill-opacity="0.45"/>
<circle cx="285.0" cy="332.0" r="3" fill="#4c78a8" fill-opacity="0.45"/>
<circle cx="290.0" cy="319.1" r="3" fill="#4c78a8" fill-opacity="0.45"/>
<circle cx="230.0" cy="332.0" r="3" fill="#4c78a8" fill-opacity="0.45"/>
<circle cx="235.0" cy="324.3" r="3" fill="#4c78a8" fill-opacity="0.45"/>
<circle cx="240.0" cy="332.0" r="3" fill="#4c78a8" fill-opacity="0.45"/>
<circle cx="245.0" cy="267.7" r="3" fill="#4c78a8" fill-opacity="0.45"/>
<circle cx="250.0" cy="329.4" r="3" fill="#4c78a8" fill-opacity="0.45"/>
<circle cx="255.0" cy="296.0" r="3" fill="#4c78a8" fill-opacity="0.45"/>
<circle cx="260.0" cy="303.7" r="3" fill="#4c78a8" fill-opacity="0.45"/>
<circle cx="265.0" cy="319.1" r="3" fill="#4c78a8" fill-opacity="0.45"/>
<circle cx="270.0" cy="303.7" r="3" fill="#4c78a8" fill-opacity="0.45"/>
<circle cx="275.0" cy="319.1" r="3" fill="#4c78a8" fill-opacity="0.45"/>
<circle cx="280.0" cy="314.0" r="3" fill="#4c78a8" fill-opacity="0.45"/>
<circle cx="285.0" cy="319.1" r="3" fill="#4c78a8" fill-opacity="0.45"/>
<circle cx="290.0" cy="308.9" r="3" fill="#4c78a8" fill-opacity="0.45"/>
<circle cx="230.0" cy="314.0" r="3" fill="#4c78a8" fill-opacity="0.45"/>
<circle cx="235.0" cy="332.0" r="3" fill="#4c78a8" fill-opacity="0.45"/>
<circle cx="240.0" cy="326.9" r="3" fill="#4c78a8" fill-opacity="0.45"/>
<circle cx="245.0" cy="329.4" r="3" fill="#4c78a8" fill-opacity="0.45"/>
<circle cx="250.0" cy="324.3" r="3" fill="#4c78a8" fill-opacity="0.45"/>
<circle cx="255.0" cy="324.3" r="3" fill="#4c78a8" fill-opacity="0.45"/>
<circle cx="260.0" cy="316.6" r="3" fill="#4c78a8" fill-opacity="0.45"/>
<circle cx="265.0" cy="332.0" r="3" fill="#4c78a8" fill-opacity="0.45"/>
<circle cx="270.0" cy="319.1" r="3" fill="#4c78a8" fill-opacity="0.45"/>
<circle cx="275.0" cy="337.1" r="3" fill="#4c78a8" fill-opacity="0.45"/>
<circle cx="280.0" cy="326.9" r="3" fill="#4c78a8" fill-opacity="0.45"/>
<circle cx="285.0" cy="329.4" r="3" fill="#4c78a8" fill-opacity="0.45"/>
<circle cx="290.0" cy="324.3" r="3" fill="#4c78a8" fill-opacity="0.45"/>
<circle cx="230.0" cy="326.9" r="3" fill="#4c78a8" fill-opacity="0.45"/>
<circle cx="235.0" cy="301.1" r="3" fill="#4c78a8" fill-opacity="0.45"/>
<circle cx="240.0" cy="324.3" r="3" fill="#4c78a8" fill-opacity="0.45"/>
<circle cx="245.0" cy="298.6" r="3" fill="#4c78a8" fill-opacity="0.45"/>
<circle cx="250.0" cy="329.4" r="3" fill="#4c78a8" fill-opacity="0.45"/>
<circle cx="255.0" cy="306.3" r="3" fill="#4c78a8" fill-opacity="0.45"/>
<circle cx="260.0" cy="326.9" r="3" fill="#4c78a8" fill-opacity="0.45"/>
<circle cx="265.0" cy="314.0" r="3" fill="#4c78a8" fill-opacity="0.45"/>
<circle cx="270.0" cy="337.1" r="3" fill="#4c78a8" fill-opacity="0.45"/>
<circle cx="275.0" cy="324.3" r="3" fill="#4c78a8" fill-opacity="0.45"/>
<circle cx="280.0" cy="334.6" r="3" fill="#4c78a8" fill-opacity="0.45"/>
<circle cx="285.0" cy="329.4" r="3" fill="#4c78a8" fill-opacity="0.45"/>
<circle cx="290.0" cy="329.4" r="3" fill="#4c78a8" fill-opacity="0.45"/>
<circle cx="230.0" cy="298.6" r="3" fill="#4c78a8" fill-opacity="0.45"/>
<circle cx="235.0" cy="329.4" r="3" fill="#4c78a8" fill-opacity="0.45"/>
<circle cx="240.0" cy="311.4" r="3" fill="#4c78a8" fill-opacity="0.45"/>
<circle cx="245.0" cy="339.7" r="3" fill="#4c78a8" fill-opacity="0.45"/>
<circle cx="250.0" cy="321.7" r="3" fill="#4c78a8" fill-opacity="0.45"/>
<circle cx="255.0" cy="329.4" r="3" fill="#4c78a8" fill-opacity="0.45"/>
<circle cx="260.0" cy="319.1" r="3" fill="#4c78a8" fill-opacity="0.45"/>
<circle cx="265.0" cy="334.6" r="3" fill="#4c78a8" fill-opacity="0.45"/>
<circle cx="270.0" cy="329.4" r="3" fill="#4c78a8" fill-opacity="0.45"/>
<circle cx="275.0" cy="339.7" r="3" fill="#4c78a8" fill-opacity="0.45"/>
<circle cx="280.0" cy="326.9" r="3" fill="#4c78a8" fill-opacity="0.45"/>
<circle cx="285.0" cy="314.0" r="3" fill="#4c78a8" fill-opacity="0.45"/>
<circle cx="290.0" cy="314.0" r="3" fill="#4c78a8" fill-opacity="0.45"/>
<circle cx="230.0" cy="319.1" r="3" fill="#4c78a8" fill-opacity="0.45"/>
<circle cx="235.0" cy="314.0" r="3" fill="#4c78a8" fill-opacity="0.45"/>
<circle cx="240.0" cy="321.7" r="3" fill="#4c78a8" fill-opacity="0.45"/>
<circle cx="245.0" cy="319.1" r="3" fill="#4c78a8" fill-opacity="0.45"/>
<circle cx="250.0" cy="324.3" r="3" fill="#4c78a8" fill-opacity="0.45"/>
<circle cx="255.0" cy="308.9" r="3" fill="#4c78a8" fill-opacity="0.45"/>
<circle cx="260.0" cy="324.3" r="3" fill="#4c78a8" fill-opacity="0.45"/>
<circle cx="265.0" cy="316.6" r="3" fill="#4c78a8" fill-opacity="0.45"/>
<circle cx="270.0" cy="326.9" r="3" fill="#4c78a8" fill-opacity="0.45"/>
<circle cx="275.0" cy="319.1" r="3" fill="#4c78a8" fill-opacity="0.45"/>
<circle cx="280.0" cy="306.3" r="3" fill="#4c78a8" fill-opacity="0.45"/>
<circle cx="285.0" cy="316.6" r="3" fill="#4c78a8" fill-opacity="0.45"/>
<circle cx="290.0" cy="308.9" r="3" fill="#4c78a8" fill-opacity="0.45"/>
<circle cx="230.0" cy="314.0" r="3" fill="#4c78a8" fill-opacity="0.45"/>
<circle cx="235.0" cy="314.0" r="3" fill="#4c78a8" fill-opacity="0.45"/>
<circle cx="240.0" cy="306.3" r="3" fill="#4c78a8" fill-opacity="0.45"/>
<circle cx="245.0" cy="321.7" r="3" fill="#4c78a8" fill-opacity="0.45"/>
<circle cx="250.0" cy="314.0" r="3" fill="#4c78a8" fill-opacity="0.45"/>
<circle cx="255.0" cy="339.7" r="3" fill="#4c78a8" fill-opacity="0.45"/>
<circle cx="260.0" cy="342.3" r="3" fill="#4c78a8" fill-opacity="0.45"/>
<circle cx="265.0" cy="344.9" r="3" fill="#4c78a8" fill-opacity="0.45"/>
<circle cx="270.0" cy="339.7" r="3" fill="#4c78a8" fill-opacity="0.45"/>
<circle cx="275.0" cy="339.7" r="3" fill="#4c78a8" fill-opacity="0.45"/>
<circle cx="280.0" cy="342.3" r="3" fill="#4c78a8" fill-opacity="0.45"/>
<circle cx="285.0" cy="334.6" r="3" fill="#4c78a8" fill-opacity="0.45"/>
<circle cx="290.0" cy="329.4" r="3" fill="#4c78a8" fill-opacity="0.45"/>
<circle cx="230.0" cy="308.9" r="3" fill="#4c78a8" fill-opacity="0.45"/>
<circle cx="235.0" cy="298.6" r="3" fill="#4c78a8" fill-opacity="0.45"/>
<circle cx="240.0" cy="324.3" r="3" fill="#4c78a8" fill-opacity="0.45"/>
<circle cx="245.0" cy="316.6" r="3" fill="#4c78a8" fill-opacity="0.45"/>
<text x="260.0" y="378.0" text-anchor="middle" font-family="Arial, sans-serif" font-size="13">Authorized</text>
<text x="260.0" y="310.7" text-anchor="middle" font-family="Arial, sans-serif" font-size="12">mean -4.45</text>
<line x1="450" y1="119.2" x2="590" y2="119.2" stroke="#f58518" stroke-width="5"/>
<circle cx="490.0" cy="121.1" r="3" fill="#f58518" fill-opacity="0.45"/>
<circle cx="495.0" cy="87.7" r="3" fill="#f58518" fill-opacity="0.45"/>
<circle cx="500.0" cy="108.3" r="3" fill="#f58518" fill-opacity="0.45"/>
<circle cx="505.0" cy="80.0" r="3" fill="#f58518" fill-opacity="0.45"/>
<circle cx="510.0" cy="134.0" r="3" fill="#f58518" fill-opacity="0.45"/>
<circle cx="515.0" cy="110.9" r="3" fill="#f58518" fill-opacity="0.45"/>
<circle cx="520.0" cy="131.4" r="3" fill="#f58518" fill-opacity="0.45"/>
<circle cx="525.0" cy="105.7" r="3" fill="#f58518" fill-opacity="0.45"/>
<circle cx="530.0" cy="128.9" r="3" fill="#f58518" fill-opacity="0.45"/>
<circle cx="535.0" cy="100.6" r="3" fill="#f58518" fill-opacity="0.45"/>
<circle cx="540.0" cy="116.0" r="3" fill="#f58518" fill-opacity="0.45"/>
<circle cx="545.0" cy="98.0" r="3" fill="#f58518" fill-opacity="0.45"/>
<circle cx="550.0" cy="128.9" r="3" fill="#f58518" fill-opacity="0.45"/>
<circle cx="490.0" cy="110.9" r="3" fill="#f58518" fill-opacity="0.45"/>
<circle cx="495.0" cy="116.0" r="3" fill="#f58518" fill-opacity="0.45"/>
<circle cx="500.0" cy="116.0" r="3" fill="#f58518" fill-opacity="0.45"/>
<circle cx="505.0" cy="139.1" r="3" fill="#f58518" fill-opacity="0.45"/>
<circle cx="510.0" cy="116.0" r="3" fill="#f58518" fill-opacity="0.45"/>
<circle cx="515.0" cy="128.9" r="3" fill="#f58518" fill-opacity="0.45"/>
<circle cx="520.0" cy="110.9" r="3" fill="#f58518" fill-opacity="0.45"/>
<circle cx="525.0" cy="131.4" r="3" fill="#f58518" fill-opacity="0.45"/>
<circle cx="530.0" cy="136.6" r="3" fill="#f58518" fill-opacity="0.45"/>
<circle cx="535.0" cy="131.4" r="3" fill="#f58518" fill-opacity="0.45"/>
<circle cx="540.0" cy="141.7" r="3" fill="#f58518" fill-opacity="0.45"/>
<circle cx="545.0" cy="116.0" r="3" fill="#f58518" fill-opacity="0.45"/>
<circle cx="550.0" cy="87.7" r="3" fill="#f58518" fill-opacity="0.45"/>
<circle cx="490.0" cy="110.9" r="3" fill="#f58518" fill-opacity="0.45"/>
<circle cx="495.0" cy="82.6" r="3" fill="#f58518" fill-opacity="0.45"/>
<circle cx="500.0" cy="121.1" r="3" fill="#f58518" fill-opacity="0.45"/>
<circle cx="505.0" cy="100.6" r="3" fill="#f58518" fill-opacity="0.45"/>
<circle cx="510.0" cy="116.0" r="3" fill="#f58518" fill-opacity="0.45"/>
<circle cx="515.0" cy="80.0" r="3" fill="#f58518" fill-opacity="0.45"/>
<circle cx="520.0" cy="139.1" r="3" fill="#f58518" fill-opacity="0.45"/>
<circle cx="525.0" cy="108.3" r="3" fill="#f58518" fill-opacity="0.45"/>
<circle cx="530.0" cy="121.1" r="3" fill="#f58518" fill-opacity="0.45"/>
<circle cx="535.0" cy="103.1" r="3" fill="#f58518" fill-opacity="0.45"/>
<circle cx="540.0" cy="152.0" r="3" fill="#f58518" fill-opacity="0.45"/>
<circle cx="545.0" cy="134.0" r="3" fill="#f58518" fill-opacity="0.45"/>
<circle cx="550.0" cy="131.4" r="3" fill="#f58518" fill-opacity="0.45"/>
<circle cx="490.0" cy="126.3" r="3" fill="#f58518" fill-opacity="0.45"/>
<circle cx="495.0" cy="108.3" r="3" fill="#f58518" fill-opacity="0.45"/>
<circle cx="500.0" cy="92.9" r="3" fill="#f58518" fill-opacity="0.45"/>
<circle cx="505.0" cy="100.6" r="3" fill="#f58518" fill-opacity="0.45"/>
<circle cx="510.0" cy="87.7" r="3" fill="#f58518" fill-opacity="0.45"/>
<circle cx="515.0" cy="131.4" r="3" fill="#f58518" fill-opacity="0.45"/>
<circle cx="520.0" cy="108.3" r="3" fill="#f58518" fill-opacity="0.45"/>
<circle cx="525.0" cy="126.3" r="3" fill="#f58518" fill-opacity="0.45"/>
<circle cx="530.0" cy="116.0" r="3" fill="#f58518" fill-opacity="0.45"/>
<circle cx="535.0" cy="152.0" r="3" fill="#f58518" fill-opacity="0.45"/>
<circle cx="540.0" cy="141.7" r="3" fill="#f58518" fill-opacity="0.45"/>
<circle cx="545.0" cy="144.3" r="3" fill="#f58518" fill-opacity="0.45"/>
<circle cx="550.0" cy="141.7" r="3" fill="#f58518" fill-opacity="0.45"/>
<circle cx="490.0" cy="128.9" r="3" fill="#f58518" fill-opacity="0.45"/>
<circle cx="495.0" cy="113.4" r="3" fill="#f58518" fill-opacity="0.45"/>
<circle cx="500.0" cy="123.7" r="3" fill="#f58518" fill-opacity="0.45"/>
<circle cx="505.0" cy="121.1" r="3" fill="#f58518" fill-opacity="0.45"/>
<circle cx="510.0" cy="128.9" r="3" fill="#f58518" fill-opacity="0.45"/>
<circle cx="515.0" cy="118.6" r="3" fill="#f58518" fill-opacity="0.45"/>
<circle cx="520.0" cy="131.4" r="3" fill="#f58518" fill-opacity="0.45"/>
<circle cx="525.0" cy="116.0" r="3" fill="#f58518" fill-opacity="0.45"/>
<circle cx="530.0" cy="134.0" r="3" fill="#f58518" fill-opacity="0.45"/>
<circle cx="535.0" cy="108.3" r="3" fill="#f58518" fill-opacity="0.45"/>
<circle cx="540.0" cy="126.3" r="3" fill="#f58518" fill-opacity="0.45"/>
<circle cx="545.0" cy="110.9" r="3" fill="#f58518" fill-opacity="0.45"/>
<circle cx="550.0" cy="123.7" r="3" fill="#f58518" fill-opacity="0.45"/>
<circle cx="490.0" cy="113.4" r="3" fill="#f58518" fill-opacity="0.45"/>
<circle cx="495.0" cy="121.1" r="3" fill="#f58518" fill-opacity="0.45"/>
<circle cx="500.0" cy="105.7" r="3" fill="#f58518" fill-opacity="0.45"/>
<circle cx="505.0" cy="126.3" r="3" fill="#f58518" fill-opacity="0.45"/>
<circle cx="510.0" cy="108.3" r="3" fill="#f58518" fill-opacity="0.45"/>
<circle cx="515.0" cy="116.0" r="3" fill="#f58518" fill-opacity="0.45"/>
<circle cx="520.0" cy="110.9" r="3" fill="#f58518" fill-opacity="0.45"/>
<circle cx="525.0" cy="141.7" r="3" fill="#f58518" fill-opacity="0.45"/>
<circle cx="530.0" cy="116.0" r="3" fill="#f58518" fill-opacity="0.45"/>
<circle cx="535.0" cy="128.9" r="3" fill="#f58518" fill-opacity="0.45"/>
<circle cx="540.0" cy="105.7" r="3" fill="#f58518" fill-opacity="0.45"/>
<circle cx="545.0" cy="131.4" r="3" fill="#f58518" fill-opacity="0.45"/>
<circle cx="550.0" cy="108.3" r="3" fill="#f58518" fill-opacity="0.45"/>
<circle cx="490.0" cy="123.7" r="3" fill="#f58518" fill-opacity="0.45"/>
<circle cx="495.0" cy="103.1" r="3" fill="#f58518" fill-opacity="0.45"/>
<circle cx="500.0" cy="144.3" r="3" fill="#f58518" fill-opacity="0.45"/>
<circle cx="505.0" cy="103.1" r="3" fill="#f58518" fill-opacity="0.45"/>
<circle cx="510.0" cy="123.7" r="3" fill="#f58518" fill-opacity="0.45"/>
<circle cx="515.0" cy="103.1" r="3" fill="#f58518" fill-opacity="0.45"/>
<circle cx="520.0" cy="146.9" r="3" fill="#f58518" fill-opacity="0.45"/>
<circle cx="525.0" cy="113.4" r="3" fill="#f58518" fill-opacity="0.45"/>
<circle cx="530.0" cy="136.6" r="3" fill="#f58518" fill-opacity="0.45"/>
<circle cx="535.0" cy="105.7" r="3" fill="#f58518" fill-opacity="0.45"/>
<circle cx="540.0" cy="139.1" r="3" fill="#f58518" fill-opacity="0.45"/>
<circle cx="545.0" cy="108.3" r="3" fill="#f58518" fill-opacity="0.45"/>
<circle cx="550.0" cy="136.6" r="3" fill="#f58518" fill-opacity="0.45"/>
<circle cx="490.0" cy="103.1" r="3" fill="#f58518" fill-opacity="0.45"/>
<circle cx="495.0" cy="136.6" r="3" fill="#f58518" fill-opacity="0.45"/>
<circle cx="500.0" cy="110.9" r="3" fill="#f58518" fill-opacity="0.45"/>
<circle cx="505.0" cy="131.4" r="3" fill="#f58518" fill-opacity="0.45"/>
<circle cx="510.0" cy="95.4" r="3" fill="#f58518" fill-opacity="0.45"/>
<circle cx="515.0" cy="136.6" r="3" fill="#f58518" fill-opacity="0.45"/>
<circle cx="520.0" cy="108.3" r="3" fill="#f58518" fill-opacity="0.45"/>
<circle cx="525.0" cy="128.9" r="3" fill="#f58518" fill-opacity="0.45"/>
<circle cx="530.0" cy="105.7" r="3" fill="#f58518" fill-opacity="0.45"/>
<circle cx="535.0" cy="139.1" r="3" fill="#f58518" fill-opacity="0.45"/>
<circle cx="540.0" cy="123.7" r="3" fill="#f58518" fill-opacity="0.45"/>
<circle cx="545.0" cy="131.4" r="3" fill="#f58518" fill-opacity="0.45"/>
<circle cx="550.0" cy="110.9" r="3" fill="#f58518" fill-opacity="0.45"/>
<circle cx="490.0" cy="136.6" r="3" fill="#f58518" fill-opacity="0.45"/>
<circle cx="495.0" cy="121.1" r="3" fill="#f58518" fill-opacity="0.45"/>
<circle cx="500.0" cy="123.7" r="3" fill="#f58518" fill-opacity="0.45"/>
<circle cx="505.0" cy="116.0" r="3" fill="#f58518" fill-opacity="0.45"/>
<circle cx="510.0" cy="141.7" r="3" fill="#f58518" fill-opacity="0.45"/>
<circle cx="515.0" cy="123.7" r="3" fill="#f58518" fill-opacity="0.45"/>
<circle cx="520.0" cy="134.0" r="3" fill="#f58518" fill-opacity="0.45"/>
<circle cx="525.0" cy="123.7" r="3" fill="#f58518" fill-opacity="0.45"/>
<circle cx="530.0" cy="144.3" r="3" fill="#f58518" fill-opacity="0.45"/>
<circle cx="535.0" cy="103.1" r="3" fill="#f58518" fill-opacity="0.45"/>
<circle cx="540.0" cy="146.9" r="3" fill="#f58518" fill-opacity="0.45"/>
<circle cx="545.0" cy="105.7" r="3" fill="#f58518" fill-opacity="0.45"/>
<circle cx="550.0" cy="126.3" r="3" fill="#f58518" fill-opacity="0.45"/>
<circle cx="490.0" cy="95.4" r="3" fill="#f58518" fill-opacity="0.45"/>
<circle cx="495.0" cy="113.4" r="3" fill="#f58518" fill-opacity="0.45"/>
<circle cx="500.0" cy="92.9" r="3" fill="#f58518" fill-opacity="0.45"/>
<circle cx="505.0" cy="131.4" r="3" fill="#f58518" fill-opacity="0.45"/>
<circle cx="510.0" cy="123.7" r="3" fill="#f58518" fill-opacity="0.45"/>
<circle cx="515.0" cy="123.7" r="3" fill="#f58518" fill-opacity="0.45"/>
<circle cx="520.0" cy="116.0" r="3" fill="#f58518" fill-opacity="0.45"/>
<circle cx="525.0" cy="136.6" r="3" fill="#f58518" fill-opacity="0.45"/>
<circle cx="530.0" cy="121.1" r="3" fill="#f58518" fill-opacity="0.45"/>
<circle cx="535.0" cy="121.1" r="3" fill="#f58518" fill-opacity="0.45"/>
<circle cx="540.0" cy="105.7" r="3" fill="#f58518" fill-opacity="0.45"/>
<circle cx="545.0" cy="152.0" r="3" fill="#f58518" fill-opacity="0.45"/>
<circle cx="550.0" cy="126.3" r="3" fill="#f58518" fill-opacity="0.45"/>
<circle cx="490.0" cy="139.1" r="3" fill="#f58518" fill-opacity="0.45"/>
<circle cx="495.0" cy="123.7" r="3" fill="#f58518" fill-opacity="0.45"/>
<circle cx="500.0" cy="134.0" r="3" fill="#f58518" fill-opacity="0.45"/>
<circle cx="505.0" cy="113.4" r="3" fill="#f58518" fill-opacity="0.45"/>
<circle cx="510.0" cy="113.4" r="3" fill="#f58518" fill-opacity="0.45"/>
<circle cx="515.0" cy="118.6" r="3" fill="#f58518" fill-opacity="0.45"/>
<circle cx="520.0" cy="128.9" r="3" fill="#f58518" fill-opacity="0.45"/>
<circle cx="525.0" cy="92.9" r="3" fill="#f58518" fill-opacity="0.45"/>
<circle cx="530.0" cy="116.0" r="3" fill="#f58518" fill-opacity="0.45"/>
<circle cx="535.0" cy="90.3" r="3" fill="#f58518" fill-opacity="0.45"/>
<circle cx="540.0" cy="128.9" r="3" fill="#f58518" fill-opacity="0.45"/>
<circle cx="545.0" cy="113.4" r="3" fill="#f58518" fill-opacity="0.45"/>
<circle cx="550.0" cy="123.7" r="3" fill="#f58518" fill-opacity="0.45"/>
<circle cx="490.0" cy="90.3" r="3" fill="#f58518" fill-opacity="0.45"/>
<circle cx="495.0" cy="136.6" r="3" fill="#f58518" fill-opacity="0.45"/>
<circle cx="500.0" cy="105.7" r="3" fill="#f58518" fill-opacity="0.45"/>
<circle cx="505.0" cy="118.6" r="3" fill="#f58518" fill-opacity="0.45"/>
<circle cx="510.0" cy="95.4" r="3" fill="#f58518" fill-opacity="0.45"/>
<circle cx="515.0" cy="121.1" r="3" fill="#f58518" fill-opacity="0.45"/>
<circle cx="520.0" cy="90.3" r="3" fill="#f58518" fill-opacity="0.45"/>
<circle cx="525.0" cy="113.4" r="3" fill="#f58518" fill-opacity="0.45"/>
<circle cx="530.0" cy="85.1" r="3" fill="#f58518" fill-opacity="0.45"/>
<circle cx="535.0" cy="128.9" r="3" fill="#f58518" fill-opacity="0.45"/>
<circle cx="540.0" cy="123.7" r="3" fill="#f58518" fill-opacity="0.45"/>
<circle cx="545.0" cy="118.6" r="3" fill="#f58518" fill-opacity="0.45"/>
<circle cx="550.0" cy="116.0" r="3" fill="#f58518" fill-opacity="0.45"/>
<circle cx="490.0" cy="136.6" r="3" fill="#f58518" fill-opacity="0.45"/>
<circle cx="495.0" cy="126.3" r="3" fill="#f58518" fill-opacity="0.45"/>
<circle cx="500.0" cy="131.4" r="3" fill="#f58518" fill-opacity="0.45"/>
<circle cx="505.0" cy="118.6" r="3" fill="#f58518" fill-opacity="0.45"/>
<text x="520.0" y="378.0" text-anchor="middle" font-family="Arial, sans-serif" font-size="13">Unauthorized</text>
<text x="520.0" y="109.2" text-anchor="middle" font-family="Arial, sans-serif" font-size="12">mean 5.34</text>
<text transform="rotate(-90 20 210)" x="20.0" y="210.0" text-anchor="middle" font-family="Arial, sans-serif" font-size="12">log p(BLOCK) - log p(EXECUTE)</text>
</svg>